<?xml version="1.0" standalone="no"?>
<!DOCTYPE svg PUBLIC "-//W3C//DTD SVG 20010904//EN"
 "http://www.w3.org/TR/2001/REC-SVG-20010904/DTD/svg10.dtd">
<svg version="1.0" xmlns="http://www.w3.org/2000/svg"
 width="1080.000000pt" height="1080.000000pt" viewBox="0 0 1080.000000 1080.000000"
 preserveAspectRatio="xMidYMid meet">

<g transform="translate(0.000000,1080.000000) scale(0.100000,-0.100000)"
fill="#000000" stroke="none">
<path d="M5220 7324 c-133 -40 -247 -118 -325 -224 -18 -25 -65 -100 -103
-166 -38 -65 -211 -364 -384 -664 -1822 -3148 -2725 -4713 -2744 -4755 -59
-126 -69 -306 -25 -445 48 -154 165 -294 307 -367 152 -79 -165 -73 3454 -73
3556 0 3303 -4 3428 59 73 37 168 109 210 160 49 60 109 178 128 251 22 84 22
235 1 317 -9 34 -30 90 -47 124 -17 33 -361 631 -764 1327 -403 697 -953 1647
-1221 2112 -1235 2136 -1201 2079 -1250 2141 -45 57 -135 129 -208 166 -131
66 -309 81 -457 37z m285 -109 c38 -8 94 -27 123 -41 65 -32 160 -118 200
-182 16 -26 396 -681 844 -1457 448 -775 1159 -2004 1579 -2730 472 -816 772
-1345 786 -1385 41 -120 27 -289 -35 -404 -34 -65 -143 -174 -208 -208 -116
-62 142 -58 -3399 -58 -3571 0 -3269 -6 -3398 62 -71 38 -175 146 -211 220
-58 119 -68 270 -26 393 10 30 194 357 408 727 460 794 2192 3790 2560 4428
284 490 312 529 433 589 68 33 168 59 234 60 22 0 71 -6 110 -14z"/>
<path d="M5365 5383 c-47 -10 -72 -27 -105 -70 l-35 -46 -3 -1196 c-2 -830 0
-1207 8 -1233 43 -150 243 -171 322 -33 l23 40 0 1205 c0 1119 -1 1207 -17
1236 -23 43 -71 81 -116 94 -38 10 -44 11 -77 3z"/>
<path d="M5285 2426 c-94 -43 -147 -128 -149 -236 -1 -76 23 -137 75 -188 167
-168 449 -51 449 186 0 71 -16 116 -60 172 -69 87 -208 116 -315 66z"/>
</g>
</svg>
